<svg xmlns="http://www.w3.org/2000/svg" width="960.953" height="549.906"><g data-name="Group 105"><path data-name="Rectangle 410" fill="#fff" d="M404.463 1.079h555.41v360.848h-555.41z"/><path data-name="Path 1747" d="M960.953 363.007H403.384V0h557.569zm-555.41-2.159h553.251V2.159H405.542z" fill="#e4e4e4"/><path data-name="Path 1748" d="M647.263 36.372c16.314.279 16.311 24.545 0 24.821-16.31-.278-16.31-24.542 0-24.821z" fill="#090814"/><path data-name="Path 1749" d="M682.168 36.372c16.314.279 16.311 24.545 0 24.821-16.314-.278-16.311-24.542 0-24.821z" fill="#6c63ff"/><path data-name="Path 1750" d="M717.073 36.372c16.314.279 16.311 24.545 0 24.821-16.314-.278-16.311-24.542 0-24.821z" fill="#cacaca"/><path data-name="Rectangle 411" fill="#cacaca" d="M500.398 131.399H611.48v1.346H500.398z"/><path data-name="Path 1751" d="M864.612 326.634H711.79V183.912h152.822zm-151.476-1.346 150.13-142.722v2.691H713.137z" fill="#cacaca"/><path data-name="Rectangle 412" fill="#cacaca" d="m712.003 185.081.919-.985 151.464 141.311-.92.985z"/><path data-name="Rectangle 413" fill="#cacaca" d="m712.001 325.469 151.464-141.311.919.985-151.464 141.31z"/><path data-name="Path 1752" d="M864.612 112.549H499.724v-24.91h364.888zm-363.541-1.346 362.195-24.91v2.693H501.071z" fill="#cacaca"/><path data-name="Path 1753" d="M634.686 222.655H500.803v-24.91h133.883zm-132.536-1.346h131.19v-22.217H502.15z" fill="#cacaca"/><path data-name="Path 1754" d="M634.686 264.754H500.803v-24.91h133.883zm-132.536-1.346h131.19v-22.217H502.15z" fill="#cacaca"/><path data-name="Path 1755" d="M634.686 306.852H500.803v-24.91h133.883zm-132.536-1.346h131.19v-22.217H502.15z" fill="#cacaca"/><path data-name="Path 1756" d="M535.866 162.264h-35.909c2.772-11.155 2.437-23.223 0-35.908h35.908a44.638 44.638 0 0 0 0 35.908z" fill="#6c63ff"/><path data-name="Rectangle 414" fill="#fff" d="M505.398 133.973h21.763v4.353h-21.763z"/><path data-name="Rectangle 415" fill="#fff" d="M505.398 142.678h21.763v4.353h-21.763z"/><path data-name="Rectangle 416" fill="#fff" d="M505.398 151.384h21.763v4.353h-21.763z"/><path data-name="Path 1757" d="M806.279 216.494H770.37c2.772-11.155 2.438-23.223 0-35.908h35.908a44.638 44.638 0 0 0 0 35.908z" fill="#6c63ff"/><path data-name="Rectangle 417" fill="#fff" d="M775.811 188.202h21.763v4.353h-21.763z"/><path data-name="Rectangle 418" fill="#fff" d="M775.811 196.907h21.763v4.353h-21.763z"/><path data-name="Rectangle 419" fill="#fff" d="M775.811 205.613h21.763v4.353h-21.763z"/><path data-name="Path 1758" d="M852.446 139.547h-35.908c2.772-11.155 2.438-23.223 0-35.908h35.908a44.638 44.638 0 0 0 0 35.908z" fill="#6c63ff"/><path data-name="Rectangle 420" fill="#fff" d="M821.979 111.256h21.763v4.353h-21.763z"/><path data-name="Rectangle 421" fill="#fff" d="M821.979 119.961h21.763v4.353h-21.763z"/><path data-name="Rectangle 422" fill="#fff" d="M821.979 128.666h21.763v4.353h-21.763z"/><path data-name="Path 1759" d="M223.014 167.641h-61.529v-32.923a30.765 30.765 0 1 1 61.529 0z" fill="#090814"/><path data-name="Path 1760" d="M249.45 531.95h14.13l6.727-51.05h-20.859z" fill="#ffb6b6"/><path data-name="Path 1762" d="m81.174 519.277 17.208 4.357 38.61-45.87-25.398-6.43z" fill="#ffb6b6"/><path data-name="Path 223" d="M206.745 152.642s-7.183 16.197-3.304 19.764-24.275 7.627-24.275 7.627 1.187-22.261-.76-27.072z" fill="#ffb9b9"/><path data-name="Path 1764" d="m176.861 301.292-1.021 4.978s-3.064 2.987-1.532 4.48 1.021 8.463 1.021 8.463c-.857 12.709-17.89 84.124-20.936 98.073 0 0-23.489 14.935-41.872 44.307s-18.893 36.839-18.893 36.839l20.425 8.463 51.063-60.237s14.3-8.463 19.4-15.931 36.766-84.631 36.766-84.631l17.872 80.648s-1.021 29.372 3.574 48.29a197.836 197.836 0 0 1 5.106 36.342l24-2.489s-1.532-70.692-4.085-78.159c0 0 10.723-86.125-10.723-120.475l-17.28-44.925-16.928-6.352z" fill="#090814"/><path data-name="Path 1765" d="M191.934 112.002c32.219.55 32.214 48.475 0 49.021-32.218-.551-32.213-48.476 0-49.021z" fill="#ffb8b8"/><path data-name="Path 1766" d="M216.729 135.24h-5.476l-1.491-3.728.746 3.728h-29.949l.975-7.8-7.28 7.8h-7.262v-4.227a24.869 24.869 0 1 1 49.737 0z" fill="#090814"/><path data-name="Path 1767" d="m225.155 173.334-60.887.493 12.869 130.521s71.2-3.758 71.244-25.49l-6.67-19.313z" fill="#e6e6e6"/><path data-name="Path 138" d="M338.468 401.082 126.22 445.037c-2.17.444-4.674-2.788-5.6-7.228l-22.3-107.727c-.919-4.439.1-8.4 2.265-8.856l212.245-43.953c2.17-.444 4.674 2.788 5.6 7.228l22.308 107.725c.912 4.442-.104 8.404-2.27 8.856z" fill="#fff"/><g data-name="Group 38" transform="translate(156.326 328.137)"><circle data-name="Ellipse 7" cx="18.954" cy="18.954" r="18.954" transform="translate(2.395 2.652)" fill="#f0f0f0"/><path data-name="Path 63" d="M91.389 66.746.341 85.601a1.914 1.914 0 0 1-.346.043l27.617-83.5a3.078 3.078 0 0 1 5.248-1.087l39.265 44.069 1.881 2.108z" fill="#e4e4e4"/><path data-name="Path 65" d="M142.086 56.249 63.337 72.557l10.669-25.324.767-1.824 13.9-33a4.109 4.109 0 0 1 5.9-1.594 3.667 3.667 0 0 1 .36.3z" fill="#e4e4e4"/></g><path data-name="Path 138" d="M338.468 401.082 126.22 445.037c-2.17.444-4.674-2.788-5.6-7.228l-22.3-107.727c-.919-4.439.1-8.4 2.265-8.856l212.245-43.953c2.17-.444 4.674 2.788 5.6 7.228l22.308 107.725c.912 4.442-.104 8.404-2.27 8.856zM101.25 324.444c-1.3.27-1.909 2.65-1.359 5.314l22.308 107.724c.552 2.663 2.055 4.6 3.358 4.337l212.245-43.953c1.3-.27 1.909-2.649 1.359-5.314l-22.308-107.724c-.552-2.663-2.055-4.6-3.358-4.337z" fill="#cacaca"/><path data-name="Path 1768" d="M275.673 301.374a10.122 10.122 0 0 1-3.965-15.006l-12.33-19.57 10.065-10.394 17.024 27.882a10.177 10.177 0 0 1-10.794 17.088z" fill="#ffb6b6"/><path data-name="Path 1769" d="m215.801 178.479 8.833-5.821s6.816 1.528 14.067 15.473 36.487 76.287 36.487 76.287l-12.017 12.2-32.059-48.909z" fill="#e6e6e6"/><path data-name="Path 1770" d="M161.663 316.97a10.122 10.122 0 0 0-2.92-15.244l2.646-22.979-13.572-5.014-3.28 32.5a10.177 10.177 0 0 0 17.127 10.733z" fill="#ffb6b6"/><path data-name="Path 1771" d="m172.28 185.068-8.011-11.2s-5.482-1.217-11.959 6.339-10.255 102.009-10.255 102.009l23.748 5.4 14.033-66.927z" fill="#e6e6e6"/><path data-name="Path 1772" d="M412.354 545.072H1.079a1.08 1.08 0 1 1 0-2.159h411.275a1.08 1.08 0 1 1 0 2.159z" fill="#e6e6e6"/><path data-name="Path 1773" d="m147.728 349.745-35.125 7.458c.395-11.488-2.439-23.223-7.458-35.125l35.125-7.458a44.639 44.639 0 0 0 7.458 35.125z" fill="#6c63ff"/><path data-name="Rectangle 423" fill="#fff" d="m112.047 328.397 21.288-4.52.905 4.258-21.289 4.52z"/><path data-name="Rectangle 424" fill="#fff" d="m113.855 336.912 21.288-4.52.905 4.258-21.289 4.52z"/><path data-name="Rectangle 425" fill="#fff" d="m115.663 345.427 21.288-4.52.905 4.258-21.289 4.52z"/><path data-name="Path 1571" d="M282.305 543.993c1.734 0 3.279-.039 4.446-.15 4.383-.4 8.568-3.642 10.673-5.534a2.988 2.988 0 0 0 .757-3.374 2.965 2.965 0 0 0-1.931-1.711l-11.587-3.311-18.762-12.658-.213.378a33.43 33.43 0 0 0-2.538 5.7 2.536 2.536 0 0 0 .18 2.112 2.017 2.017 0 0 0 .867.725c-.339.355-1.4 1.08-4.682 1.6-4.785.757-5.794-4.2-5.833-4.406l-.032-.166-.142-.095c-2.278-1.466-3.681-2.136-4.162-1.994-.3.087-.8.244-2.168 13.747a13.882 13.882 0 0 0-.441 6.5c.7 3.232 14.827 2.12 17.657 1.868.079.008 10.657.765 17.9.765h.008z" fill="#090814"/><path data-name="Path 1793" d="M107.81 542.888c1.62.755 3.082 1.393 4.22 1.799 4.27 1.537 9.582.36 12.366-.474a3.035 3.035 0 0 0 2.164-2.795 3.049 3.049 0 0 0-1.067-2.426l-9.4-8.117-7.828-18.943-.362.258c-.135.097-3.778 2.148-5.32 3.954a2.571 2.571 0 0 0-.743 2.036 2.077 2.077 0 0 0 .498 1.05 35.412 35.412 0 0 1-8.823-1.3c-4.8-1.385-3.6-6.417-3.55-6.62l.041-.168-.09-.152c-1.495-2.353-2.521-3.585-3.029-3.661-.317-.05-.857-.124-7.964 11.787a14.064 14.064 0 0 0-3.22 5.831c-.74 3.297 12.942 8.427 15.696 9.427.07.041 9.632 5.352 16.403 8.51l.007.003z" fill="#090814"/></g></svg>